<svg width="16" height="16" viewBox="0 0 16 16" fill="none" xmlns="http://www.w3.org/2000/svg">
<path d="M12.5999 11.1842C13.6643 9.76177 14.1503 7.98899 13.9601 6.22266C13.77 4.45635 12.9177 2.82763 11.575 1.66439C10.2323 0.501142 8.49876 -0.110272 6.72337 -0.0467764C4.94798 0.0167187 3.26255 0.750408 2.00636 2.0066C0.750164 3.2628 0.0164746 4.94823 -0.0470206 6.72362C-0.110516 8.49901 0.500898 10.2325 1.66414 11.5753C2.82739 12.918 4.4561 13.7702 6.22242 13.9604C7.98874 14.1505 9.76152 13.6645 11.1839 12.6002L14.5839 16.0002L15.9999 14.5868L12.5999 11.1842ZM6.99992 12.0002C6.01101 12.0002 5.04431 11.7069 4.22206 11.1575C3.39982 10.6081 2.75896 9.82721 2.38052 8.91358C2.00208 7.99995 1.90306 6.99461 2.09599 6.02471C2.28892 5.0548 2.76512 4.16389 3.46438 3.46463C4.16364 2.76536 5.05456 2.28916 6.02446 2.09623C6.99437 1.90331 7.9997 2.00232 8.91333 2.38076C9.82696 2.7592 10.6079 3.40006 11.1573 4.22231C11.7067 5.04455 11.9999 6.01125 11.9999 7.00016C11.9987 8.32586 11.4715 9.59691 10.5341 10.5343C9.59667 11.4717 8.32562 11.9989 6.99992 12.0002Z" fill="#CCCCCC"/>
</svg>
